<?xml version="1.0" encoding="utf-8"?>
<!-- Generator: Adobe Illustrator 19.2.0, SVG Export Plug-In . SVG Version: 6.00 Build 0)  -->
<svg version="1.1" id="Layer_1" xmlns="http://www.w3.org/2000/svg" xmlns:xlink="http://www.w3.org/1999/xlink" x="0px" y="0px"
	 viewBox="0 0 288 288" style="enable-background:new 0 0 288 288;" xml:space="preserve">
<style type="text/css">
	.st0{fill:#879490;}
</style>
<path class="st0" d="M207.4,98.7c-8.6-10-17.2-19.9-25.7-30c-2-2.4-4.3-3.3-7.4-3.2c-26.5,0.1-53,0-79.5,0.1c-5.5,0-7.5,1.9-8,7.4
	c-0.8,8.6-1.5,17.3-2.3,25.9c-2.5,27.9-5,55.7-7.4,83.6c-0.5,6,1.9,8.6,8,8.8c3.3,0.1,6.7,0.2,10,0c3.4-0.2,4.7,0.5,4.2,4.4
	c-1,7.7-1.4,15.6-2.1,24.3c1.2-0.8,1.8-1.1,2.2-1.5c8.8-8.1,17.7-16.2,26.4-24.4c2.1-2,4.2-2.8,7.1-2.8c9.8,0.1,19.7,0,29.5,0.1
	c3.3,0,6.1-0.8,8.6-3.2c10.4-10.3,21-20.5,31.5-30.7c1.9-1.8,3-3.9,3.2-6.5c1.2-14.8,2.5-29.5,3.9-44.3
	C210.1,103.5,209.4,101,207.4,98.7z M185.6,114.8c-0.9,8.9-1.7,17.9-2.4,26.9c-0.2,2.7-1.2,4.7-3.1,6.5c-5.8,5.5-11.6,11-17.3,16.6
	c-2,2-4.2,3-7.1,3c-15-0.1-30,0-45-0.1c-5.9,0-8.2-2.4-7.8-8.3c1.7-21.1,3.5-42.1,5.4-63.2c0.5-5.3,2.7-7.2,8.3-7.2
	c7.7-0.1,15.3,0,23,0c7.2,0,14.3,0.1,21.5,0c3.6-0.1,6.4,0.9,8.8,3.8c4.4,5.2,8.9,10.4,13.4,15.5C184.9,109.9,185.9,112,185.6,114.8
	z"/>
<path class="st0" d="M141.9,137.7c-7.3,0-7.3,0-6.7-6.9c0.6-7.3,1.5-14.6,1.8-21.9c0.2-4.1,1.7-5.8,5.8-5.3c1.6,0.2,3.3,0.1,5,0
	c2.3,0,3.3,1.1,3.1,3.4c-0.8,9.1-1.6,18.2-2.4,27.3C148.1,139.4,144.1,137.1,141.9,137.7z"/>
<path class="st0" d="M139.7,155.7c-1.9-1-6.7,2.1-6.2-3.2c1-10.5-0.9-10.4,7.4-10.1c2.4,0.1,7.1-2.1,6.6,3.1
	C146.5,155.9,148.4,155.8,139.7,155.7z"/>
<g>
</g>
<g>
</g>
<g>
</g>
<g>
</g>
<g>
</g>
<g>
</g>
</svg>
