<?xml version="1.0" encoding="utf-8"?>
<!-- Generator: Adobe Illustrator 19.2.0, SVG Export Plug-In . SVG Version: 6.00 Build 0)  -->
<svg version="1.1" id="Слой_1" xmlns="http://www.w3.org/2000/svg" xmlns:xlink="http://www.w3.org/1999/xlink" x="0px" y="0px"
	 viewBox="0 0 300 300" style="enable-background:new 0 0 300 300;" xml:space="preserve">
<style type="text/css">
	.st0{fill:#879490;}
</style>
<g>
	<path class="st0" d="M150,54.4c31.1,0,34.8,0.1,47.1,0.7c11.4,0.5,17.5,2.4,21.6,4c5.4,2.1,9.3,4.6,13.4,8.7
		c4.1,4.1,6.6,8,8.7,13.4c1.6,4.1,3.5,10.3,4,21.6c0.6,12.3,0.7,16,0.7,47.1s-0.1,34.8-0.7,47.1c-0.5,11.4-2.4,17.5-4,21.6
		c-2.1,5.4-4.6,9.3-8.7,13.4c-4.1,4.1-8,6.6-13.4,8.7c-4.1,1.6-10.3,3.5-21.6,4c-12.3,0.6-16,0.7-47.1,0.7s-34.8-0.1-47.1-0.7
		c-11.4-0.5-17.5-2.4-21.6-4c-5.4-2.1-9.3-4.6-13.4-8.7c-4.1-4.1-6.6-8-8.7-13.4c-1.6-4.1-3.5-10.3-4-21.6
		c-0.6-12.3-0.7-16-0.7-47.1s0.1-34.8,0.7-47.1c0.5-11.4,2.4-17.5,4-21.6c2.1-5.4,4.6-9.3,8.7-13.4c4.1-4.1,8-6.6,13.4-8.7
		c4.1-1.6,10.3-3.5,21.6-4C115.2,54.5,118.9,54.4,150,54.4 M150,33.4c-31.7,0-35.6,0.1-48.1,0.7c-12.4,0.6-20.9,2.5-28.3,5.4
		c-7.7,3-14.2,7-20.7,13.4c-6.5,6.5-10.5,13-13.4,20.7c-2.9,7.4-4.9,15.9-5.4,28.3c-0.6,12.4-0.7,16.4-0.7,48.1
		c0,31.7,0.1,35.6,0.7,48.1c0.6,12.4,2.5,20.9,5.4,28.3c3,7.7,7,14.2,13.4,20.7c6.5,6.5,13,10.5,20.7,13.4
		c7.4,2.9,15.9,4.9,28.3,5.4c12.4,0.6,16.4,0.7,48.1,0.7s35.6-0.1,48.1-0.7c12.4-0.6,20.9-2.5,28.3-5.4c7.7-3,14.2-7,20.7-13.4
		c6.5-6.5,10.5-13,13.4-20.7c2.9-7.4,4.9-15.9,5.4-28.3c0.6-12.4,0.7-16.4,0.7-48.1s-0.1-35.6-0.7-48.1c-0.6-12.4-2.5-20.9-5.4-28.3
		c-3-7.7-7-14.2-13.4-20.7c-6.5-6.5-13-10.5-20.7-13.4c-7.4-2.9-15.9-4.9-28.3-5.4C185.6,33.5,181.7,33.4,150,33.4L150,33.4z"/>
	<path class="st0" d="M150,90.1c-33.1,0-59.9,26.8-59.9,59.9s26.8,59.9,59.9,59.9s59.9-26.8,59.9-59.9S183.1,90.1,150,90.1z
		 M150,188.9c-21.5,0-38.9-17.4-38.9-38.9s17.4-38.9,38.9-38.9s38.9,17.4,38.9,38.9S171.5,188.9,150,188.9z"/>
	<circle class="st0" cx="212.2" cy="87.8" r="14"/>
</g>
<g>
</g>
<g>
</g>
<g>
</g>
<g>
</g>
<g>
</g>
<g>
</g>
</svg>
