<?xml version="1.0" encoding="utf-8"?>
<!-- Generator: Adobe Illustrator 19.2.0, SVG Export Plug-In . SVG Version: 6.00 Build 0)  -->
<svg version="1.1" id="Слой_1" xmlns="http://www.w3.org/2000/svg" xmlns:xlink="http://www.w3.org/1999/xlink" x="0px" y="0px"
	 viewBox="0 0 300 300" style="enable-background:new 0 0 300 300;" xml:space="preserve">
<style type="text/css">
	.st0{fill:#89928E;}
</style>
<g>
	<path class="st0" d="M96.6,186.5c0.9,0,1.7-0.8,1.8-1.7l1.7-21.9L98.3,121c-0.1-1-0.8-1.7-1.8-1.7c-0.9,0-1.7,0.8-1.7,1.7
		l-1.5,41.9l1.5,21.9C94.9,185.8,95.6,186.5,96.6,186.5z"/>
	<path class="st0" d="M88.2,186.5c0.8,0,1.5-0.7,1.6-1.6l1.8-22l-1.8-34.1c0-0.9-0.7-1.6-1.6-1.6c-0.8,0-1.5,0.7-1.6,1.6L85,162.9
		l1.6,22C86.7,185.8,87.4,186.5,88.2,186.5z"/>
	<path class="st0" d="M71.7,185.9c0.6,0,1.2-0.5,1.2-1.2l2.1-21.8l-2.1-22.6c-0.1-0.7-0.6-1.2-1.2-1.2c-0.6,0-1.2,0.5-1.2,1.2
		l-1.8,22.6l1.8,21.8C70.5,185.4,71,185.9,71.7,185.9z"/>
	<path class="st0" d="M79.9,186.3c0.7,0,1.3-0.6,1.4-1.4l2-22l-2-21c0-0.8-0.6-1.4-1.4-1.4c-0.8,0-1.4,0.6-1.4,1.4l-1.7,20.9l1.7,22
		C78.6,185.7,79.2,186.3,79.9,186.3z"/>
	<path class="st0" d="M113.5,186.5c1.1,0,2-0.9,2.1-2.1l1.5-21.5l-1.5-46.9c0-1.2-1-2.1-2.1-2.1c-1.2,0-2.1,0.9-2.1,2.1l-1.3,46.9
		l1.3,21.5C111.4,185.6,112.4,186.5,113.5,186.5z"/>
	<path class="st0" d="M122.1,186.5c1.2,0,2.2-1,2.3-2.3l1.4-21.3l-1.4-45.7c0-1.3-1-2.3-2.3-2.3c-1.2,0-2.2,1-2.3,2.3l-1.2,45.7
		l1.2,21.3C119.8,185.5,120.8,186.5,122.1,186.5z"/>
	<path class="st0" d="M105,186.5c1,0,1.9-0.8,1.9-1.9l1.6-21.6l-1.6-45.4c0-1.1-0.9-1.9-1.9-1.9c-1,0-1.9,0.8-1.9,1.9l-1.4,45.4
		l1.4,21.7C103.1,185.6,104,186.5,105,186.5z"/>
	<path class="st0" d="M139.4,186.6c1.4,0,2.6-1.2,2.6-2.6l1.1-21l-1.1-52.4c0-1.4-1.2-2.6-2.6-2.6c-1.4,0-2.6,1.2-2.6,2.6l-1,52.4
		c0,0,1,21.1,1,21.1C136.8,185.4,138,186.6,139.4,186.6z"/>
	<path class="st0" d="M63.5,185.1c0.5,0,1-0.4,1-1l2.2-21.2l-2.2-22c-0.1-0.6-0.5-1-1-1c-0.5,0-1,0.4-1,1l-1.9,22l1.9,21.2
		C62.5,184.7,62.9,185.1,63.5,185.1z"/>
	<path class="st0" d="M148.1,103c-1.5,0-2.8,1.2-2.8,2.8l-1.2,57.2l1.2,20.7c0,1.5,1.3,2.8,2.8,2.8c1.5,0,2.8-1.3,2.8-2.8l1.2-20.7
		l-1.2-57.2C150.8,104.3,149.6,103,148.1,103z"/>
	<path class="st0" d="M47.8,175c0.4,0,0.8-0.3,0.8-0.8l1.8-11.3l-1.8-11.5c-0.1-0.5-0.4-0.8-0.8-0.8c-0.4,0-0.8,0.3-0.8,0.8
		l-1.5,11.5l1.5,11.2C47,174.6,47.3,175,47.8,175z"/>
	<path class="st0" d="M55.4,181.8c0.4,0,0.8-0.3,0.8-0.8l2.3-18.1l-2.3-18.5c-0.1-0.5-0.4-0.8-0.8-0.8c-0.4,0-0.8,0.4-0.9,0.8
		l-2,18.5l2,18.1C54.6,181.5,55,181.8,55.4,181.8z"/>
	<path class="st0" d="M130.7,116.5c-1.3,0-2.4,1.1-2.4,2.4l-1.1,44l1.1,21.2c0,1.3,1.1,2.4,2.4,2.4c1.4,0,2.4-1,2.4-2.4l1.2-21.2
		l-1.2-44.1C133.1,117.5,132.1,116.5,130.7,116.5z"/>
	<path class="st0" d="M251.7,161.3c0,14-11.4,25.4-25.4,25.4c-0.5,0-70.3,0-70.3,0c-1.5-0.2-2.7-1.4-2.7-3v-80.5
		c0-1.5,0.5-2.2,2.4-3c4.9-1.9,10.5-3,16.2-3c23.4,0,42.6,17.9,44.6,40.8c3-1.3,6.3-2,9.8-2C240.3,135.9,251.7,147.2,251.7,161.3z"
		/>
</g>
<g>
</g>
<g>
</g>
<g>
</g>
<g>
</g>
<g>
</g>
<g>
</g>
</svg>
