<?xml version="1.0" encoding="utf-8"?>
<!-- Generator: Adobe Illustrator 19.2.0, SVG Export Plug-In . SVG Version: 6.00 Build 0)  -->
<svg version="1.1" id="Слой_1" xmlns="http://www.w3.org/2000/svg" xmlns:xlink="http://www.w3.org/1999/xlink" x="0px" y="0px"
	 viewBox="0 0 900 300" style="enable-background:new 0 0 900 300;" xml:space="preserve">
<style type="text/css">
	.st0{fill:#223436;}
</style>
<g>
	<path class="st0" d="M130.6,27.6h0.4c19,0,35.5,3.4,49.6,10.2c6,2.3,12.8,8.5,20.3,18.4c3.9,5.5,5.9,10.9,5.9,16.4v0.8
		c0,12.2-11.3,28.4-34,48.4c-10.2,9.6-23.2,21-39.1,34c-4.2,24.7-7.9,54-11.3,87.9c-0.8,1.3-1.6,2.1-2.3,2.3h-1.2
		c-1.3-0.8-2-2.1-2-3.9v-0.8c0-18,2-43.1,5.9-75.4c0-0.3,0-0.5,0-0.8h-1.2c-17.7,13-35.5,28.3-53.5,45.7
		c-12.8,13.3-21.1,24.2-25,32.8c-2.3,7.8-4.4,11.7-6.3,11.7h-1.2c-1.8-1.3-2.7-2.6-2.7-3.9c0-9.9,7-23.4,21.1-40.6
		c22.7-22.1,40.9-38.3,54.7-48.4c10.9-8.8,16.4-13.5,16.4-14.1c1.8-16.7,2.7-31.3,2.7-43.8c0-15.1-1.7-33.3-5.1-54.7
		c0.8-4.9,2.7-7.4,5.9-7.4h1.6c3.6,0,6.1,7.3,7.4,21.9c1.3,8.3,2,17.1,2,26.2v6.6c0,10.4-0.9,24.2-2.7,41.4v0.4
		c2.9-0.8,14.3-10.7,34.4-29.7c16.7-17.7,25-29.7,25-35.9v-1.2c0-8.1-7.2-16-21.5-23.8c-9.9-5.2-23.3-7.8-40.2-7.8
		c-8.3,0.3-12.9,0.5-13.7,0.8c-4.4,0-6.6-2.5-6.6-7.4v-0.4c0-3.4,2.9-5.2,8.6-5.5C124.1,27.7,126.7,27.6,130.6,27.6z"/>
</g>
<g>
	<path class="st0" d="M165,170.6h3.5c8.1,0,14.2,4.7,18.4,14.1c0.8,2.3,1.2,5,1.2,7.8c0,2.6-0.7,5.7-2,9.4h0.4c4.7,0,10.7,3,18,9
		c3.1,4.4,4.7,7.7,4.7,9.8c-1.3,3.6-3.3,5.5-5.9,5.5c-2.1,0-5.9-3.5-11.3-10.5c-3.4-2.3-7.3-3.5-11.7-3.5h-1.6l-16,2.3h-2.3
		c-8.9,0-14.8-5.2-18-15.6c-0.3-2.6-0.5-4-0.8-4.3c0-10.7,6-18.4,18-23C162.4,170.8,164.2,170.6,165,170.6z M156,193.2
		c0,3.7,3.3,5.9,9.8,6.6c7.3,0,11.5-2.2,12.5-6.6v-2c0-4.4-3.6-7.2-10.9-8.2C159.8,183.1,156,186.5,156,193.2z"/>
	<path class="st0" d="M281.4,141.7h1.2c2.9,0.5,4.3,1.7,4.3,3.5c0,1.3-2.5,4.3-7.4,9c-11.2,11.7-22.4,25.4-33.6,41
		c-7,11.7-12,19.3-14.8,22.7c-1.6,0.8-2.6,1.2-3.1,1.2h-1.2c-5.5,0-12.8-16.1-21.9-48.4v-0.8c0-3.1,2.2-5.2,6.6-6.3
		c3.1,0,5.5,4.6,7,13.7c4.7,14.6,7.7,21.9,9,21.9c2.1-1.6,6.1-6.9,12.1-16c4.4-6.5,13.1-16.4,26.2-29.7
		C273.6,145.6,278.8,141.7,281.4,141.7z"/>
	<path class="st0" d="M304.8,156.5h0.8c8.1,0,13.9,3.1,17.6,9.4c0.3,1.6,0.4,2.5,0.4,2.7c0,7.3-8.7,17.2-26.2,29.7
		c-2.1,1.6-4.6,2.6-7.4,3.1c-1.8,0-4-2.9-6.6-8.6V192c0.3-0.5,2.1-1,5.5-1.6c4.9-1.8,11.2-6.6,18.8-14.5c1-1.8,1.6-3.1,1.6-3.9
		c-0.3-1.8-1.4-2.7-3.5-2.7c-16.9,5-25.4,12.5-25.4,22.7c0,6.5,2.7,10.8,8.2,12.9c6.5,2.9,14.7,4.3,24.6,4.3h0.4c1,0,2,0,2.7,0h2.7
		c1.6,0,6.6-0.5,15.2-1.6c1.8,0.3,2.7,1.3,2.7,3.1c0,2.9-7.3,5.6-21.9,8.2c-3.1,0.3-5.5,0.4-7,0.4c-15.6,0-27.7-4.4-36.3-13.3
		c-3.9-5.2-5.9-10.8-5.9-16.8c0-11.5,10.7-22,32-31.6C300.9,156.9,303.3,156.5,304.8,156.5z"/>
	<path class="st0" d="M358.4,42.8c4.7,0,7,3.1,7,9.4c-8.3,41.4-12.5,84.1-12.5,128.1c0,17.7,1.6,27.9,4.7,30.5
		c1.8,2.1,3.9,3.1,6.3,3.1c6.3,0,15.5-2.1,27.7-6.3c2.1-0.8,4.3-1.2,6.6-1.2h0.4c3.1,0.3,4.7,0.9,4.7,2v0.4c0,2.9-6.5,7.2-19.5,12.9
		c-9.4,3.6-17.3,5.5-23.8,5.5h-0.8c-6.8,0-10.9-2.5-12.5-7.4c-3.6-9.1-5.5-23.8-5.5-44.1c0-24.2,4-66.7,12.1-127.3v-2
		C353.3,44,355,42.8,358.4,42.8z"/>
</g>
<g>
	<path class="st0" d="M597.6,41.7h0.8c2.9,0,4.9,2.1,6.3,6.3v1.2c0,1.8-2.6,5.6-7.8,11.3c-12.8,16.9-34.4,40.9-64.8,71.9
		c-0.8,0.5-5,4.6-12.5,12.1c-1.6,1.3-2.3,2.6-2.3,3.9c0,1,3.5,4,10.5,9c13.8,12.8,22.3,21.6,25.4,26.6c6,8.1,10.8,18.5,14.5,31.3
		c1.3,5.7,2,9.2,2,10.5l-1.2,0.8c-1.6-1.8-5.3-7.8-11.3-18c-16.4-25-31.9-39.7-46.5-44.1h-0.8c-0.8,0-1.8,5.7-3.1,17.2
		c-3.1,15.6-6.3,27.2-9.4,34.8c-1.6,1-3,1.6-4.3,1.6h-1.6c-3.7,0-6.3-2.2-7.8-6.6c-2.9-6.5-8.2-15.5-16-27c0-0.8-0.1-1.6-0.4-2.3
		c0-2.1,1.8-4.2,5.5-6.3h1.2c2.3,0,6.8,6,13.3,18l2,1.6c1-1.8,2.7-8.2,5.1-19.1c1.3-7.5,2-11.7,2-12.5c0-2.3-0.9-5.6-2.7-9.8v-2.3
		c0-3.4,2.5-6.5,7.4-9.4c1-1.3,3-8.3,5.9-21.1c2.3-11.2,3.5-22.7,3.5-34.4v-3.9c0-0.5-0.1-0.8-0.4-0.8h-0.4
		c-3.4,3.4-5.3,5.1-5.9,5.1h-0.8c-0.3,0-0.4-0.3-0.4-0.8c4.4-8.3,6.6-13.4,6.6-15.2c0-0.3,0.1-1.3,0.4-3.1
		c-0.5-4.4-0.8-8.2-0.8-11.3c0-4.4,1.3-6.6,3.9-6.6h0.4c6.5,0,9.8,2.9,9.8,8.6c0.5,4.2,0.8,9.2,0.8,15.2v5.1c0,13.8-1.8,29-5.5,45.7
		h1.2c3.1-1.6,17.1-15.1,41.8-40.6c12-13.3,23.6-27.1,34.8-41.4L597.6,41.7z"/>
</g>
<g>
	<path class="st0" d="M587.3,159.2h0.8c2.3,0,4.2,2.1,5.5,6.3l-4.7,9c-2.3,5.5-3.5,10.9-3.5,16.4c0,9.6,2.2,15.6,6.6,18
		c1.3,0.5,2.1,0.8,2.3,0.8h0.4c5.2,0,12.5-3.9,21.9-11.7c6-6.8,9.8-10.2,11.3-10.2l0.8,1.2v0.4c0,3.4-4.8,9.8-14.5,19.1
		c-8.3,6.5-15.1,9.8-20.3,9.8h-3.1c-8.6,0-13.9-6-16-18c-0.5-3.4-0.8-5.7-0.8-7v-1.6c0-13.3,2.7-23.3,8.2-30.1
		C584.1,160,585.8,159.2,587.3,159.2z M588.5,125.3h1.2c4.2,0,7,2.3,8.6,7v1.6c0,3.4-2.3,5.7-7,7h-0.8c-5.5,0-8.9-2.9-10.2-8.6
		C580.3,128.9,583,126.6,588.5,125.3z"/>
</g>
<g>
	<path class="st0" d="M622.7,161.6c6.3,0,10.3,7.3,12.1,21.9c0.3,0,0.4,0.5,0.4,1.6h1.2c0.3-0.5,2-4.2,5.1-10.9
		c3.9-5.7,7.7-8.6,11.3-8.6c4.4,0,7.8,4,10.2,12.1c0.8,2.9,1.2,6.9,1.2,12.1c0,2.1-0.1,5-0.4,8.6c0.5,6.3,0.8,12.9,0.8,19.9
		c0,4.7-2.1,7-6.3,7c-3.1,0-4.7-1.6-4.7-4.7c-1.3-24.5-2.6-36.7-3.9-36.7h-0.4c-1.3,0.5-4,6.4-8.2,17.6c-3.7,9.1-6.8,13.7-9.4,13.7
		c-3.1,0-4.7-3.6-4.7-10.9c-1.3-10.7-3.7-22.8-7-36.3v-3.1C620.2,162.6,621.1,161.6,622.7,161.6z"/>
	<path class="st0" d="M691.8,170.6h3.5c8.1,0,14.2,4.7,18.4,14.1c0.8,2.3,1.2,5,1.2,7.8c0,2.6-0.7,5.7-2,9.4h0.4c4.7,0,10.7,3,18,9
		c3.1,4.4,4.7,7.7,4.7,9.8c-1.3,3.6-3.3,5.5-5.9,5.5c-2.1,0-5.9-3.5-11.3-10.5c-3.4-2.3-7.3-3.5-11.7-3.5h-1.6l-16,2.3h-2.3
		c-8.9,0-14.8-5.2-18-15.6c-0.3-2.6-0.5-4-0.8-4.3c0-10.7,6-18.4,18-23C689.2,170.8,691,170.6,691.8,170.6z M682.8,193.2
		c0,3.7,3.3,5.9,9.8,6.6c7.3,0,11.5-2.2,12.5-6.6v-2c0-4.4-3.7-7.2-10.9-8.2C686.6,183.1,682.8,186.5,682.8,193.2z"/>
	<path class="st0" d="M749.3,42.8c4.7,0,7,3.1,7,9.4c-8.3,41.4-12.5,84.1-12.5,128.1c0,17.7,1.6,27.9,4.7,30.5
		c1.8,2.1,3.9,3.1,6.3,3.1c6.3,0,15.5-2.1,27.7-6.3c2.1-0.8,4.3-1.2,6.6-1.2h0.4c3.1,0.3,4.7,0.9,4.7,2v0.4c0,2.9-6.5,7.2-19.5,12.9
		c-9.4,3.6-17.3,5.5-23.8,5.5H750c-6.8,0-10.9-2.5-12.5-7.4c-3.7-9.1-5.5-23.8-5.5-44.1c0-24.2,4-66.7,12.1-127.3v-2
		C744.2,44,745.9,42.8,749.3,42.8z"/>
</g>
<g>
</g>
<g>
</g>
<g>
</g>
<g>
</g>
<g>
</g>
<g>
</g>
</svg>
