<?xml version="1.0" encoding="utf-8"?>
<!-- Generator: Adobe Illustrator 19.2.0, SVG Export Plug-In . SVG Version: 6.00 Build 0)  -->
<svg version="1.1" id="Слой_1" xmlns="http://www.w3.org/2000/svg" xmlns:xlink="http://www.w3.org/1999/xlink" x="0px" y="0px"
	 viewBox="0 0 300 300" style="enable-background:new 0 0 300 300;" xml:space="preserve">
<style type="text/css">
	.st0{fill:#879490;}
</style>
<path class="st0" d="M58.9,172.4c1,0,1.9,0,2.9,0.1c0.4,0.2,0.8,0.2,1.3,0c1,0,1.9,0,2.9-0.1c0.5-0.2,1,0.1,1.5-0.2
	c2.6,0,5.1-0.7,7.8-1.3c-1.2-0.7-2.4-0.8-3.5-1.1c-5.3-1.4-10.1-3.9-14.6-6.9c-3.4-2.3-6.5-4.9-9.2-8c-4.2-4.7-7.5-10-9.8-15.9
	c-1.4-3.7-2.5-7.5-3-11.5c-0.1-1-0.1-2-0.3-2.9c-0.2-0.6,0.1-1.3-0.2-1.9c0-0.9,0-1.8,0-2.8c1.9,0.9,3.7,1.8,5.5,2.5
	c3.7,1.5,7.6,2.6,11.6,3.2c0.9,0.1,1.8,0.3,2.7,0.2c0.4,0.2,0.8,0,1.2,0.2c0.4,0,0.9,0.1,1.7,0.1c-13-9.6-20.6-21.9-22.2-37.8
	c-0.2-0.5,0.1-1-0.2-1.5c0-2.3,0-4.6,0-6.9c0.2-0.5,0-1,0.2-1.5c0.2-3.9,1.1-7.7,2.3-11.3c1-3.1,2.4-6.1,4-8.9
	c0.3-0.6,0.6-0.4,0.9-0.1c0.6,0.7,1.2,1.4,1.8,2.1c19,22.1,42.6,37.3,70.6,45.5c6.2,1.8,12.6,3.2,19,4.2c1.7,0.3,3.4,0.6,5.2,0.5
	c0.4,0.2,0.8,0,1.2,0.2c0.4,0,0.8,0,1.2,0.1c0.4,0.2,0.8,0,1.2,0.2c0.5,0,1.1,0.1,1.6,0.1c0.6,0.2,1.2,0,1.7,0.2
	c0.5,0,1,0.1,1.6,0.1c-0.4-2.2-0.8-4.2-0.9-6.3c-0.2-0.5,0.1-1-0.2-1.5c0-0.9-0.1-1.9-0.1-2.8c-0.1-0.7-0.1-1.4,0-2.1
	c0-0.9,0-1.7,0.1-2.6c0.3-0.5,0-1,0.2-1.5c0.6-7.2,2.9-13.9,6.4-20.2c1.6-2.8,3.5-5.5,5.7-8c4.8-5.6,10.5-10,17.2-13.1
	c4.8-2.2,9.8-3.7,15-4.3c0.6-0.1,1.3-0.2,1.9-0.3c0.5-0.2,1,0.1,1.5-0.2c2.3,0,4.6,0,6.9,0c0.5,0.3,1.1,0,1.7,0.2
	c6.6,0.8,13,2.6,18.9,5.8c4.7,2.5,8.9,5.6,12.7,9.4c0.6,0.6,1.1,0.7,1.9,0.5c7.3-1.5,14.4-3.9,21.2-7c3.1-1.4,6-2.9,8.9-4.6
	c0.3-0.2,0.7-0.5,1.3-0.4c-4,11.9-11.3,21.1-21.8,27.9c2,0.1,3.9-0.4,5.8-0.7c2-0.3,3.9-0.8,5.9-1.3c1.9-0.5,3.8-1,5.7-1.6
	c1.9-0.6,3.8-1.3,5.7-2c1.8-0.7,3.6-1.5,5.6-2.3c-1.1,1.9-2.3,3.5-3.5,5c-3.2,4.2-6.7,8.2-10.5,11.9c-3.3,3.2-6.7,6.2-10.4,8.8
	c-0.8,0.6-1.4,1.2-1.2,2.3c0.1,0.6,0.1,1.2,0.1,1.8c0.1,2.2,0.1,4.5,0,6.7c0,1.1,0,2.2-0.1,3.4c-0.3,0.7,0,1.4-0.2,2.2
	c0,0.6,0,1.1-0.1,1.7c-0.3,0.5,0,1.1-0.2,1.7c0,0.4,0,0.8-0.1,1.2c-0.2,0.4,0,0.8-0.2,1.2c-1.4,12-4,23.8-8.2,35.2
	c-3.3,9-7.3,17.6-12.2,25.9c-4.7,8-10.1,15.6-16.3,22.6c-4.7,5.3-9.8,10.3-15.2,14.9c-5.9,5-12.2,9.4-18.8,13.4
	c-5.1,3-10.4,5.7-15.8,8c-7.5,3.2-15.3,5.7-23.2,7.6c-4.7,1.1-9.5,2-14.3,2.6c-1.4,0.2-2.8,0.4-4.2,0.5c-0.4,0.2-0.8-0.1-1.2,0.2
	c-0.4,0-0.8,0-1.2,0.1c-0.5,0.2-1-0.1-1.5,0.2c-0.6,0-1.1,0-1.7,0.1c-0.6,0.2-1.3-0.1-1.9,0.2c-0.8,0-1.6,0-2.4,0.1
	c-1.3,0.2-2.6-0.1-3.9,0.2c-2.1,0-4.1,0-6.2,0c-1.3-0.3-2.6,0-3.8-0.2c-0.8,0-1.6-0.1-2.4-0.1c-0.6-0.2-1.2,0-1.7-0.2
	c-0.5,0-1,0-1.4-0.1c-0.5-0.3-1,0-1.4-0.2c-0.4,0-0.8,0-1.2-0.1c-0.4-0.2-0.8,0-1.2-0.2c-0.3,0-0.6,0-1-0.1c-0.4-0.3-0.8,0-1.2-0.2
	c-6.4-0.7-12.7-2-18.9-3.6c-3.8-1-7.5-2.1-11.2-3.4c-6.7-2.4-13.3-5.2-19.5-8.5c-3.6-1.9-7.1-3.9-10.5-6.1c0.1-0.3,0.3-0.4,0.6-0.3
	c0.4,0,0.8,0,1.2,0.1c0.5,0.3,1,0,1.5,0.2c0.5,0,0.9,0,1.4,0.1c0.6,0.3,1.3,0,1.9,0.2c1.1,0,2.2,0,3.4,0.1c1.4,0.2,2.7,0.2,4.1,0
	c1.1,0,2.2,0,3.4-0.1c0.6-0.2,1.3,0.1,1.9-0.2c0.5,0,0.9,0,1.4-0.1c0.5-0.2,1,0.1,1.4-0.2c0.3,0,0.6,0,1-0.1
	c0.4-0.2,0.8,0.1,1.2-0.2c3.5-0.2,7-1,10.4-1.7c9.2-2.1,17.9-5.4,26.2-9.9c4.7-2.6,9.2-5.5,13.5-8.7c0.2-0.1,0.4-0.3,0.3-0.4
	c-0.1-0.2-0.3-0.3-0.6-0.3c-0.6,0-1.1,0-1.7,0c-0.5-0.3-1,0-1.5-0.2c-8.1-0.7-15.5-3.5-22.4-7.8c-4.2-2.7-7.8-6-11.1-9.8
	c-3.3-3.9-5.9-8.1-8.1-12.7c-0.6-1.3-1-2.8-1.6-4.2c-0.4-0.9,0-0.9,0.7-0.8c1.2,0.3,2.5,0.5,3.8,0.4
	C57.9,172.5,58.4,172.2,58.9,172.4z"/>
<g>
</g>
<g>
</g>
<g>
</g>
<g>
</g>
<g>
</g>
<g>
</g>
</svg>
