<?xml version="1.0" encoding="utf-8"?>
<!-- Generator: Adobe Illustrator 19.2.0, SVG Export Plug-In . SVG Version: 6.00 Build 0)  -->
<svg version="1.1" id="Слой_1" xmlns="http://www.w3.org/2000/svg" xmlns:xlink="http://www.w3.org/1999/xlink" x="0px" y="0px"
	 viewBox="0 0 300 300" style="enable-background:new 0 0 300 300;" xml:space="preserve">
<style type="text/css">
	.st0{fill:#879490;}
</style>
<g id="Lozenge">
	<g>
		<path class="st0" d="M249.4,109.5c0,0-2-14-8.1-20.1c-7.7-8.1-16.4-8.1-20.3-8.6c-28.4-2.1-71-2.1-71-2.1H150c0,0-42.6,0-71,2.1
			c-4,0.5-12.6,0.5-20.3,8.6c-6.1,6.2-8.1,20.1-8.1,20.1s-2,16.4-2,32.8v15.4c0,16.4,2,32.8,2,32.8s2,14,8.1,20.1
			c7.7,8.1,17.8,7.8,22.4,8.7c16.2,1.6,69,2,69,2s42.6-0.1,71-2.1c4-0.5,12.6-0.5,20.3-8.6c6.1-6.2,8.1-20.1,8.1-20.1s2-16.4,2-32.8
			v-15.4C251.4,125.9,249.4,109.5,249.4,109.5z M129.1,176.3l0-57l54.8,28.6L129.1,176.3z"/>
	</g>
</g>
<g>
</g>
<g>
</g>
<g>
</g>
<g>
</g>
<g>
</g>
<g>
</g>
</svg>
